<svg version="1.1" viewBox="0.0 0.0 126.39632545931758 126.13648293963254" fill="none" stroke="none" stroke-linecap="square" stroke-miterlimit="10" xmlns:xlink="http://www.w3.org/1999/xlink" xmlns="http://www.w3.org/2000/svg"><clipPath id="p.0"><path d="m0 0l126.396324 0l0 126.13648l-126.396324 0l0 -126.13648z" clip-rule="nonzero"/></clipPath><g clip-path="url(#p.0)"><path fill="#000000" fill-opacity="0.0" d="m0 0l126.396324 0l0 126.13648l-126.396324 0z" fill-rule="evenodd"/><path fill="#6fa8dc" d="m-0.001312336 21.071287l0 0c0 -11.63735 9.433937 -21.071287 21.071287 -21.071287l84.28262 0l0 0c5.5884476 0 10.948013 2.2200043 14.899651 6.171637c3.9516296 3.951633 6.171631 9.311197 6.171631 14.899651l0 84.28262c0 11.637344 -9.433937 21.071281 -21.071281 21.071281l-84.28262 0c-11.63735 0 -21.071287 -9.433937 -21.071287 -21.071281z" fill-rule="evenodd"/><path fill="#000000" fill-opacity="0.0" d="m110.614815 27.57775l-36.566925 0" fill-rule="evenodd"/><path stroke="#ffffff" stroke-width="12.0" stroke-linejoin="round" stroke-linecap="butt" d="m110.614815 27.57775l-36.566925 0" fill-rule="evenodd"/><path fill="#000000" fill-opacity="0.0" d="m21.789383 104.86614l0 -83.30708" fill-rule="evenodd"/><path stroke="#ffffff" stroke-width="12.0" stroke-linejoin="round" stroke-linecap="butt" d="m21.789383 104.86614l0 -83.30708" fill-rule="evenodd"/><path fill="#000000" fill-opacity="0.0" d="m23.582033 25.622047l34.897636 37.007874" fill-rule="evenodd"/><path stroke="#ffffff" stroke-width="12.0" stroke-linejoin="round" stroke-linecap="butt" d="m23.582033 25.622047l34.897636 37.007874" fill-rule="evenodd"/><path fill="#000000" fill-opacity="0.0" d="m104.63319 104.86614l0 -83.30708" fill-rule="evenodd"/><path stroke="#ffffff" stroke-width="12.0" stroke-linejoin="round" stroke-linecap="butt" d="m104.63319 104.86614l0 -83.30708" fill-rule="evenodd"/><path fill="#000000" fill-opacity="0.0" d="m102.84054 25.622047l-34.897636 37.007874" fill-rule="evenodd"/><path stroke="#ffffff" stroke-width="12.0" stroke-linejoin="round" stroke-linecap="butt" d="m102.84054 25.622047l-34.897636 37.007874" fill-rule="evenodd"/><path fill="#ffffff" d="m62.8855 57.304474l9.417324 9.41732l-9.10236 9.102364l-9.417324 -9.41732z" fill-rule="evenodd"/><path fill="#000000" fill-opacity="0.0" d="m104.63319 58.11199l0 -36.56693" fill-rule="evenodd"/><path stroke="#ffffff" stroke-width="12.0" stroke-linejoin="round" stroke-linecap="butt" d="m104.63319 58.11199l0 -36.56693" fill-rule="evenodd"/><path fill="#000000" fill-opacity="0.0" d="m92.98163 61.256718l25.070862 0" fill-rule="evenodd"/><path stroke="#6fa8dc" stroke-width="12.0" stroke-linejoin="round" stroke-linecap="butt" d="m92.98163 61.256718l25.070862 0" fill-rule="evenodd"/><path fill="#6fa8dc" d="m63.08109 50.674374l4.1259804 4.125984l-3.968502 3.968502l-4.125984 -4.125984z" fill-rule="evenodd"/></g></svg>