<svg version="1.1" viewBox="0.0 0.0 180.0 180.0" fill="none" stroke="none" stroke-linecap="square" stroke-miterlimit="10" xmlns:xlink="http://www.w3.org/1999/xlink" xmlns="http://www.w3.org/2000/svg"><clipPath id="p.0"><path d="m0 0l180.0 0l0 180.0l-180.0 0l0 -180.0z" clip-rule="nonzero"/></clipPath><g clip-path="url(#p.0)"><path fill="#000000" fill-opacity="0.0" d="m0 0l180.0 0l0 180.0l-180.0 0z" fill-rule="evenodd"/><path fill="#45818e" d="m0 29.984852l0 0c0 -16.568874 13.431726 -30.0006 30.0006 -30.0006l119.9988 0l0 0c7.95665 0 15.587418 3.1607685 21.213623 8.786972c5.6262054 5.6262045 8.786972 13.256974 8.786972 21.213627l0 120.030304c0 16.568863 -13.431732 30.000595 -30.000595 30.000595l-119.9988 0c-16.568874 0 -30.0006 -13.431732 -30.0006 -30.000595z" fill-rule="evenodd"/><path fill="#000000" fill-opacity="0.0" d="m42.30337 142.03978l0 -95.968506" fill-rule="evenodd"/><path stroke="#434343" stroke-width="12.0" stroke-linejoin="round" stroke-linecap="butt" d="m42.30337 142.03978l0 -95.968506" fill-rule="evenodd"/><path fill="#000000" fill-opacity="0.0" d="m44.14306 50.354733l45.70079 45.700787" fill-rule="evenodd"/><path stroke="#434343" stroke-width="12.0" stroke-linejoin="round" stroke-linecap="butt" d="m44.14306 50.354733l45.70079 45.700787" fill-rule="evenodd"/><path fill="#000000" fill-opacity="0.0" d="m137.3896 142.03978l0 -52.28347" fill-rule="evenodd"/><path stroke="#434343" stroke-width="12.0" stroke-linejoin="round" stroke-linecap="butt" d="m137.3896 142.03978l0 -52.28347" fill-rule="evenodd"/><path fill="#000000" fill-opacity="0.0" d="m135.54991 50.354733l-45.700783 45.700787" fill-rule="evenodd"/><path stroke="#434343" stroke-width="12.0" stroke-linejoin="round" stroke-linecap="butt" d="m135.54991 50.354733l-45.700783 45.700787" fill-rule="evenodd"/><path fill="#434343" d="m89.84668 84.28387l10.078735 10.078735l-10.078735 10.078743l-10.078743 -10.078743z" fill-rule="evenodd"/><path fill="#000000" fill-opacity="0.0" d="m109.47135 52.038918l26.078743 0" fill-rule="evenodd"/><path stroke="#434343" stroke-width="12.0" stroke-linejoin="round" stroke-linecap="butt" d="m109.47135 52.038918l26.078743 0" fill-rule="evenodd"/><path fill="#000000" fill-opacity="0.0" d="m137.38998 46.060772l0 31.77953" fill-rule="evenodd"/><path stroke="#434343" stroke-width="12.0" stroke-linejoin="round" stroke-linecap="butt" d="m137.38998 46.060772l0 31.77953" fill-rule="evenodd"/><path fill="#45818e" d="m89.84668 67.32061l10.078735 10.078743l-10.078735 10.078735l-10.078743 -10.078735z" fill-rule="evenodd"/><path stroke="#434343" stroke-width="1.0" stroke-linejoin="round" stroke-linecap="butt" d="m89.84668 67.32061l10.078735 10.078743l-10.078735 10.078735l-10.078743 -10.078735z" fill-rule="evenodd"/><path fill="#000000" fill-opacity="0.0" d="m42.317585 133.93922l0 -95.9685" fill-rule="evenodd"/><path stroke="#ffffff" stroke-width="12.0" stroke-linejoin="round" stroke-linecap="butt" d="m42.317585 133.93922l0 -95.9685" fill-rule="evenodd"/><path fill="#000000" fill-opacity="0.0" d="m44.157276 42.25419l45.700787 45.70079" fill-rule="evenodd"/><path stroke="#ffffff" stroke-width="12.0" stroke-linejoin="round" stroke-linecap="butt" d="m44.157276 42.25419l45.700787 45.70079" fill-rule="evenodd"/><path fill="#000000" fill-opacity="0.0" d="m137.40382 133.93922l0 -52.283463" fill-rule="evenodd"/><path stroke="#ffffff" stroke-width="12.0" stroke-linejoin="round" stroke-linecap="butt" d="m137.40382 133.93922l0 -52.283463" fill-rule="evenodd"/><path fill="#000000" fill-opacity="0.0" d="m135.56413 42.25419l-45.70079 45.70079" fill-rule="evenodd"/><path stroke="#ffffff" stroke-width="12.0" stroke-linejoin="round" stroke-linecap="butt" d="m135.56413 42.25419l-45.70079 45.70079" fill-rule="evenodd"/><path fill="#ffffff" d="m89.86089 76.18332l10.078743 10.078743l-10.078743 10.078735l-10.078743 -10.078735z" fill-rule="evenodd"/><path fill="#000000" fill-opacity="0.0" d="m109.485565 43.938374l26.078735 0" fill-rule="evenodd"/><path stroke="#ffffff" stroke-width="12.0" stroke-linejoin="round" stroke-linecap="butt" d="m109.485565 43.938374l26.078735 0" fill-rule="evenodd"/><path fill="#000000" fill-opacity="0.0" d="m137.4042 37.960228l0 31.779526" fill-rule="evenodd"/><path stroke="#ffffff" stroke-width="12.0" stroke-linejoin="round" stroke-linecap="butt" d="m137.4042 37.960228l0 31.779526" fill-rule="evenodd"/><path fill="#45818e" d="m89.86089 59.220066l10.078743 10.078739l-10.078743 10.078743l-10.078743 -10.078743z" fill-rule="evenodd"/></g></svg>